<svg xmlns="http://www.w3.org/2000/svg" width="600" height="400" viewBox="0 0 600 400">
  <rect width="600" height="400" fill="#f1f5f9" />
  <rect x="50" y="50" width="500" height="300" rx="10" fill="#f8fafc" stroke="#94a3b8" stroke-width="2" />
  <rect x="80" y="100" width="140" height="230" rx="5" fill="#e2e8f0" />
  <rect x="230" y="100" width="140" height="230" rx="5" fill="#e2e8f0" />
  <rect x="380" y="100" width="140" height="230" rx="5" fill="#e2e8f0" />
  <rect x="90" y="110" width="120" height="20" rx="3" fill="#0ea5e9" />
  <rect x="90" y="140" width="120" height="40" rx="3" fill="#ffffff" stroke="#94a3b8" />
  <rect x="90" y="190" width="120" height="40" rx="3" fill="#ffffff" stroke="#94a3b8" />
  <rect x="90" y="240" width="120" height="40" rx="3" fill="#ffffff" stroke="#94a3b8" />
  <rect x="240" y="110" width="120" height="20" rx="3" fill="#6366f1" />
  <rect x="240" y="140" width="120" height="40" rx="3" fill="#ffffff" stroke="#94a3b8" />
  <rect x="240" y="190" width="120" height="40" rx="3" fill="#ffffff" stroke="#94a3b8" />
  <rect x="390" y="110" width="120" height="20" rx="3" fill="#10b981" />
  <rect x="390" y="140" width="120" height="40" rx="3" fill="#ffffff" stroke="#94a3b8" />
  <text x="300" y="80" font-family="Arial" font-size="18" text-anchor="middle" fill="#0f172a">Task Management System</text>
</svg> 